<svg width="0" height="0" style="position:absolute" aria-hidden="true"><defs>
<symbol id="i-web" viewBox="0 0 24 24"><rect class="ic" x="3" y="4" width="18" height="14" rx="2"/><path class="ic" d="M3 9h18M8 18v2h8v-2"/></symbol>
<symbol id="i-bot" viewBox="0 0 24 24"><rect class="ic" x="4" y="8" width="16" height="11" rx="3"/><path class="ic" d="M12 4v4M8 13h.01M16 13h.01M9 19v2M15 19v2"/></symbol>
<symbol id="i-chat" viewBox="0 0 24 24"><path class="ic" d="M21 12a8 8 0 0 1-11.4 7.2L4 21l1.8-5.6A8 8 0 1 1 21 12Z"/></symbol>
<symbol id="i-shield" viewBox="0 0 24 24"><path class="ic" d="M12 3l7 3v6c0 4.5-3 7.5-7 9-4-1.5-7-4.5-7-9V6l7-3Z"/><path class="ic" d="M9 12l2 2 4-4"/></symbol>
<symbol id="i-users" viewBox="0 0 24 24"><circle class="ic" cx="9" cy="8" r="3"/><path class="ic" d="M3 20a6 6 0 0 1 12 0M16 5a3 3 0 0 1 0 6M21 20a6 6 0 0 0-4-5.7"/></symbol>
<symbol id="i-spark" viewBox="0 0 24 24"><path class="ic" d="M12 3v4M12 17v4M3 12h4M17 12h4M6 6l2.5 2.5M15.5 15.5L18 18M18 6l-2.5 2.5M8.5 15.5L6 18"/></symbol>
<symbol id="i-news" viewBox="0 0 24 24"><rect class="ic" x="4" y="4" width="16" height="16" rx="2"/><path class="ic" d="M8 8h8M8 12h8M8 16h5"/></symbol>
<symbol id="i-send" viewBox="0 0 24 24"><path class="ic" d="M4 12l16-7-7 16-2-7-7-2Z"/></symbol>
<symbol id="i-trophy" viewBox="0 0 24 24"><path class="ic" d="M7 4h10v4a5 5 0 0 1-10 0V4ZM7 6H4v2a3 3 0 0 0 3 3M17 6h3v2a3 3 0 0 1-3 3M9 17h6M10 21h4M12 17v-2"/></symbol>
<symbol id="i-doc" viewBox="0 0 24 24"><path class="ic" d="M7 3h7l4 4v14H7V3Z"/><path class="ic" d="M14 3v4h4M9 13h6M9 17h6"/></symbol>
<symbol id="i-check" viewBox="0 0 24 24"><path class="ic" d="M4 12l5 5L20 6"/></symbol>
<symbol id="i-cal" viewBox="0 0 24 24"><rect class="ic" x="4" y="5" width="16" height="16" rx="2"/><path class="ic" d="M4 9h16M8 3v4M16 3v4"/></symbol>
<symbol id="i-wallet" viewBox="0 0 24 24"><rect class="ic" x="3" y="6" width="18" height="13" rx="2"/><path class="ic" d="M3 10h18M16 14h2"/></symbol>
<symbol id="i-mic" viewBox="0 0 24 24"><rect class="ic" x="9" y="3" width="6" height="11" rx="3"/><path class="ic" d="M5 11a7 7 0 0 0 14 0M12 18v3"/></symbol>
<symbol id="i-gear" viewBox="0 0 24 24"><circle class="ic" cx="12" cy="12" r="3"/><path class="ic" d="M12 2v3M12 19v3M2 12h3M19 12h3M5 5l2 2M17 17l2 2M19 5l-2 2M7 17l-2 2"/></symbol>
<symbol id="i-db" viewBox="0 0 24 24"><ellipse class="ic" cx="12" cy="5" rx="8" ry="3"/><path class="ic" d="M4 5v14c0 1.7 3.6 3 8 3s8-1.3 8-3V5M4 12c0 1.7 3.6 3 8 3s8-1.3 8-3"/></symbol>
<symbol id="i-lock" viewBox="0 0 24 24"><rect class="ic" x="5" y="11" width="14" height="9" rx="2"/><path class="ic" d="M8 11V8a4 4 0 0 1 8 0v3"/></symbol>
<symbol id="i-key" viewBox="0 0 24 24"><circle class="ic" cx="8" cy="8" r="4"/><path class="ic" d="M11 11l9 9M16 16l2-2M19 19l2-2"/></symbol>
<symbol id="i-flow" viewBox="0 0 24 24"><rect class="ic" x="3" y="9" width="6" height="6" rx="1"/><rect class="ic" x="15" y="3" width="6" height="6" rx="1"/><rect class="ic" x="15" y="15" width="6" height="6" rx="1"/><path class="ic" d="M9 12h3v-6h3M12 12v6h3"/></symbol>
<symbol id="i-rocket" viewBox="0 0 24 24"><path class="ic" d="M14 4c3 0 6 3 6 6 0 4-5 8-5 8H9s-5-4-5-8c0-3 3-6 6-6"/><circle class="ic" cx="12" cy="9" r="2"/><path class="ic" d="M9 18l-2 3M15 18l2 3"/></symbol>
<symbol id="i-arrow" viewBox="0 0 24 24"><path class="ic" d="M5 12h14M13 6l6 6-6 6"/></symbol>
<symbol id="i-star" viewBox="0 0 24 24"><path class="ic" d="M12 3l2.6 5.6L21 9.5l-4.5 4.3 1.1 6.2L12 17l-5.6 3 1.1-6.2L3 9.5l6.4-.9L12 3Z"/></symbol>
<symbol id="i-globe" viewBox="0 0 24 24"><circle class="ic" cx="12" cy="12" r="9"/><path class="ic" d="M3 12h18M12 3c2.5 2.5 2.5 15.5 0 18M12 3c-2.5 2.5-2.5 15.5 0 18"/></symbol>
<symbol id="i-quote" viewBox="0 0 24 24"><path class="ic" d="M7 7H4v6h3l-2 4M17 7h-3v6h3l-2 4"/></symbol>
<symbol id="i-target" viewBox="0 0 24 24"><circle class="ic" cx="12" cy="12" r="9"/><circle class="ic" cx="12" cy="12" r="5"/><circle class="ic" cx="12" cy="12" r="1"/></symbol>
<symbol id="i-layers" viewBox="0 0 24 24"><path class="ic" d="M12 3l9 5-9 5-9-5 9-5ZM3 13l9 5 9-5M3 16l9 5 9-5"/></symbol>
<symbol id="i-instagram" viewBox="0 0 24 24"><rect class="ic" x="2" y="2" width="20" height="20" rx="5"/><circle class="ic" cx="12" cy="12" r="4.5"/><circle cx="17.5" cy="6.5" r="1" fill="currentColor"/></symbol>
<symbol id="i-youtube" viewBox="0 0 24 24"><path class="ic" d="M21.6 7.2S21.4 5.8 20.8 5.2c-.7-.7-1.4-.7-1.8-.8C16.2 4.2 12 4.2 12 4.2s-4.2 0-7 .3c-.4 0-1.1.1-1.8.8-.6.6-.8 2-.8 2S2.2 8.8 2.2 10.4v1.5c0 1.6.2 3.2.2 3.2s.2 1.4.8 2c.7.7 1.6.7 2 .7 1.5.1 6.8.2 6.8.2s4.2 0 7-.3c.4-.1 1.1-.2 1.8-.8.6-.6.8-2 .8-2s.2-1.6.2-3.2v-1.5c0-1.6-.2-3.2-.2-3.2Z"/><path class="ic" d="M10 15V9l5 3-5 3Z"/></symbol>
<symbol id="i-facebook" viewBox="0 0 24 24"><path class="ic" d="M18 2h-3a5 5 0 0 0-5 5v3H7v4h3v8h4v-8h3l1-4h-4V7a1 1 0 0 1 1-1h3z"/></symbol>
</defs></svg>
